<svg xmlns="http://www.w3.org/2000/svg" width="73" height="56" viewBox="0 0 72.86 55.38">
    <path fill="#5351cb" d="M24.28,26a2.37,2.37,0,0,0,.12,4.75h.12a2.37,2.37,0,0,0,2.25-2.49A2.39,2.39,0,0,0,24.28,26Z"/>
    <path fill="#5351cb" d="M43.28,19a2.37,2.37,0,0,0,.12,4.75h.12A2.38,2.38,0,1,0,43.28,19Z"/>
    <path fill="#5351cb" d="M52.22,15.66a2.37,2.37,0,0,0,.12,4.75h.12a2.37,2.37,0,0,0,2.25-2.49A2.39,2.39,0,0,0,52.22,15.66Z"/>
    <path fill="#5351cb" d="M61.9,11.85A2.37,2.37,0,0,0,62,16.59h.12a2.38,2.38,0,1,0-.24-4.74Z"/>
    <path fill="#5351cb" d="M72.23,9.81c-1.49-3.6-5.08-5.26-9.59-4.41l0,.09c-1,.23-5,1.79-22.29,8.53l.32-.46L21.43.14,21.23,0,12.12,3,28.46,18.67,17.31,23c-1.05-1.33-5.39-6.67-9-9a5.59,5.59,0,0,0-6.71.36A4.12,4.12,0,0,0,.34,19.31c.75,2.08,8.28,17.56,8.58,18.17.06.16,1.27,3.21,6.44,3.21a17.73,17.73,0,0,0,3.87-.47C20.15,40,31.05,35,33.62,33.75L30.36,55.38l8.68-3L46.74,29v0c.83-.34,20.35-8.3,23.59-10.8C72.73,16.58,73.54,13,72.23,9.81ZM21.07,1.11,25.5,4.2,18.59,7.78l0,.08L14,3.43ZM19.32,8.52l7-3.61-.13-.26,13.71,9.55-.14.06-10.48,4.1.16-.17ZM35.59,27.36l11.78-3.47L40.08,46,40,45.75l-7.54,2.51Zm2.66,24.22L31.6,53.89l.68-4.52,7.52-2.51ZM69.76,17.41C67,19.57,50.85,26.25,47.15,27.77l1.77-5.39L35.75,26.27a2.35,2.35,0,0,0,.39-1.42,2.38,2.38,0,0,0-4.74.24,2.37,2.37,0,0,0,2.37,2.26h.12a2.36,2.36,0,0,0,.72-.16l-.94,6.26.31-.95S19.76,39.08,19,39.23c-7.59,1.7-9.11-2-9.19-2.15S2,21,1.27,18.93a3.19,3.19,0,0,1,1-3.76,4.6,4.6,0,0,1,5.52-.28c3.88,2.51,8.91,9,9,9.05l.23.3.35-.14c15.27-6,44.3-17.34,45.5-17.73,4-.75,7.18.68,8.48,3.81C72.42,12.88,71.75,16,69.76,17.41Z"/>
</svg>
