<svg id="Layer_1" data-name="Layer 1" xmlns="http://www.w3.org/2000/svg" viewBox="0 0 24.2 25"><defs><style>.cls-1{fill:#231f20;}.cls-2{fill:#fff;}</style></defs><title>Icon-</title><path class="cls-1" d="M12.1,0,0,4V18l12.1,7,12.1-7V4Zm9.46,13.42.88-.41v3.41l-.87.45Zm-.58.27.14-.06V17.1l-.14.07Zm-.74.35.52-.24v3.48l-.52.26Zm-1.44.68L20,14.17v3.51l-1.17.6Zm-1.22.57.28-.13v3.6l-.28.14Zm-.86.4.17-.08v3.64l-.17.08Zm-1.22.57.58-.27v3.67l-.58.29ZM13.89,17l1.31-.61v3.71l-1.3.66ZM12.1,7.82l-3-1.23L18,3.16l3,1ZM1.5,6.29,4.39,7.48v2.94L7.2,12.08V8.63L10.6,10V22.41L1.5,17.15ZM3.22,4.16l8.88-3,2.76.93L5.92,5.27Z"/><polygon class="cls-2" points="23.97 18.02 13.37 24.16 13.28 8.59 23.97 4.05 23.97 18.02"/><rect class="cls-1" x="22.76" y="4.06" width="1.44" height="13.97"/><rect class="cls-1" x="17.84" y="14.35" width="1.28" height="12.45" transform="translate(27.06 -5.72) rotate(60)"/><path class="cls-1" d="M13.89,20.8V17l1.31-.61v3.71ZM15.5,20V16.29l.58-.27v3.67Zm1.22-.62V15.72l.17-.08v3.64Zm.86-.44V15.31l.28-.13v3.6Zm1.21-.62V14.74L20,14.2v3.51Zm1.44-.73v-3.5l.52-.24v3.48Zm.74-.38V13.72l.14-.06v3.46Zm1.46-.74-.87.45V13.45l.88-.41Z"/></svg>