<svg id="Layer_1" data-name="Layer 1" xmlns="http://www.w3.org/2000/svg" viewBox="0 0 43.33 35.33"><defs><style>.cls-1{fill:#4752dc;}.cls-2{fill:#fffffb;}</style></defs><title>Icon-</title><rect class="cls-1" width="43.33" height="35.33"/><path class="cls-2" d="M21.57,23.61,9.91,18.23s-1-.46-1.79-.9c0,.65.16,1.84.77,2.16L20.3,24.63a2.43,2.43,0,0,0,2.54,0L34.26,19.5c.56-.26.77-1.5.77-2.16l-1.79.9Z"/><path class="cls-2" d="M21.57,29,9.91,23.61s-1-.46-1.79-.9c0,.65.16,1.84.77,2.16L20.3,30a2.43,2.43,0,0,0,2.54,0l11.42-5.13c.56-.26.77-1.5.77-2.16l-1.79.9Z"/><path class="cls-2" d="M35.26,9.35a.5.5,0,0,0-.38-.52L18.73,5a.5.5,0,0,0-.61.57c.33,2,.42,3.95.2,4.26-.7.65-8.88,3.11-9.76,3.27a.5.5,0,0,0-.36.17.49.49,0,0,0-.08.14h0a.49.49,0,0,0,0,.42c.06.65.26,1.48.75,1.74L20.3,20.69a2.43,2.43,0,0,0,2.54,0l11.42-5.13c.4-.19.62-.87.71-1.48A.47.47,0,0,0,35,14V14a4.57,4.57,0,0,0,0-.56h0ZM21.57,19.67,9.91,14.29l-.75-.35c2-.55,9.25-2.62,9.93-3.5.54-.7.34-2.89.13-4.31l15,3.58L34,13.92l-.76.38Z"/></svg>