<svg id="Layer_1" data-name="Layer 1" xmlns="http://www.w3.org/2000/svg" viewBox="0 0 27.15 27.15"><defs><style>.cls-1{fill:#3c68bf;}.cls-2{fill:none;}.cls-3{fill:#fff;}</style></defs><title>Icon-</title><path class="cls-1" d="M13.57,27.15A13.51,13.51,0,0,1,6.8,25.33L1.52,27.15l1.09-5.6a13.42,13.42,0,0,1-2.6-8A13.57,13.57,0,1,1,13.57,27.15Z"/><path class="cls-2" d="M13.57,5.37A8.2,8.2,0,0,0,7.11,18.62l-.55,2.83,2.67-.92A8.2,8.2,0,1,0,13.57,5.37Z"/><path class="cls-3" d="M13.57,22.44a8.83,8.83,0,0,1-4.42-1.19L5.7,22.44l.71-3.66a8.77,8.77,0,0,1-1.7-5.21,8.87,8.87,0,1,1,8.87,8.87ZM9.31,19.8l.27.17a7.56,7.56,0,1,0-1.95-1.75l.19.24-.39,2Z"/><ellipse class="cls-3" cx="10.29" cy="13.75" rx="0.97" ry="0.91"/><ellipse class="cls-3" cx="13.51" cy="13.75" rx="0.97" ry="0.91"/><ellipse class="cls-3" cx="16.73" cy="13.75" rx="0.97" ry="0.91"/></svg>