<svg id="Layer_1" data-name="Layer 1" xmlns="http://www.w3.org/2000/svg" viewBox="0 0 17.96 18.58"><defs><style>.cls-1{fill:#5351cb;}</style></defs><title>Icon-</title><path class="cls-1" d="M17.81.15A.5.5,0,0,0,17.46,0h0L.5,0a.5.5,0,0,0-.5.5.49.49,0,0,0,0,.2L.21,18.09a.5.5,0,0,0,.87.33l3.6-4H17.46a.5.5,0,0,0,.5-.5V.5A.5.5,0,0,0,17.81.15ZM17,13.42H4.46a.5.5,0,0,0-.37.17L1.2,16.79,1,1,17,1Z"/><rect class="cls-1" x="3.93" y="4.18" width="11.17" height="1.01" rx="0.15" ry="0.15"/><rect class="cls-1" x="3.93" y="6.68" width="11.17" height="1.01" rx="0.15" ry="0.15"/><rect class="cls-1" x="3.93" y="9.08" width="7.59" height="1.01" rx="0.15" ry="0.15"/></svg>