<svg xmlns="http://www.w3.org/2000/svg" width="21" height="21" viewBox="0 0 20.44 19.82">
    <path fill="currentColor" d="M20.44,4V4h0a.78.78,0,0,0-.76-.78L16,3.25l-9.54.07a.78.78,0,1,0,0,1.57L18.7,4.75l-1.87,8.49H6.61L4.87,5.57,4,2.28H4L1.26.16a.78.78,0,1,0-1,1.25l2.36,1.8.67,2.71,1.71,7.55a2,2,0,0,0,.83,3.85,2,2,0,1,0,4,0h3.48a2,2,0,1,0,2-1.57H6a.47.47,0,0,1,0-.94H17.42a.78.78,0,0,0,.75-.57l2.11-9.4c0-.07.12-.66.15-.82V4ZM14.79,17.31a.7.7,0,1,1-.18.47A.7.7,0,0,1,14.79,17.31Zm-7.44,0a.7.7,0,1,1-.18.47A.7.7,0,0,1,7.35,17.31Z"/>
</svg>
