<svg xmlns="http://www.w3.org/2000/svg" width="21" height="21" viewBox="0 0 24 24">
    <path fill="currentColor" d="M12,0A12,12,0,1,0,24,12,12,12,0,0,0,12,0Zm0,1a11,11,0,0,1,8.46,18c-1.09-.46-3.68-1.36-5.29-1.83-.14,0-.16,0-.16-.62a3.28,3.28,0,0,1,.38-1.34,6.89,6.89,0,0,0,.53-1.82,4.09,4.09,0,0,0,.79-1.9,2.51,2.51,0,0,0,0-1.6l0-.1a10.41,10.41,0,0,1,.18-2.24,4.11,4.11,0,0,0-.86-3A4.43,4.43,0,0,0,12.59,3h-1A4.4,4.4,0,0,0,8.23,4.61a4.1,4.1,0,0,0-.86,3,10.42,10.42,0,0,1,.18,2.24l0,.1a2.51,2.51,0,0,0,0,1.6,4.1,4.1,0,0,0,.79,1.9,6.83,6.83,0,0,0,.53,1.82A3.22,3.22,0,0,1,9,16.6c0,.57,0,.58-.15.62-1.66.49-4.29,1.44-5.28,1.87A11,11,0,0,1,12,1ZM4.32,19.86c1.13-.46,3.37-1.26,4.84-1.7.86-.27.86-1,.86-1.57a4.3,4.3,0,0,0-.31-1.79,5.63,5.63,0,0,1-.46-1.67.51.51,0,0,0-.17-.33,3,3,0,0,1-.61-1.49c-.14-.72-.08-.88,0-1a1.83,1.83,0,0,0,.07-.2,9.76,9.76,0,0,0-.16-2.68A3.13,3.13,0,0,1,9,5.23,3.42,3.42,0,0,1,11.61,4h.95a3.43,3.43,0,0,1,2.62,1.23,3.14,3.14,0,0,1,.67,2.17,9.84,9.84,0,0,0-.16,2.68,2,2,0,0,0,.07.2c.06.15.12.31,0,1a3,3,0,0,1-.61,1.49.5.5,0,0,0-.17.33,5.66,5.66,0,0,1-.46,1.67A4.24,4.24,0,0,0,14,16.58c0,.58,0,1.3.87,1.58,1.41.42,3.66,1.19,4.86,1.66a11,11,0,0,1-15.41.05Z"/>
</svg>
