<svg xmlns="http://www.w3.org/2000/svg" x="0px" y="0px" viewBox="0 0 539.95 103.15" style="enable-background:new 0 0 539.95 103.15;"
	 xml:space="preserve">
<g>
	<path style="fill:#010000;" d="M48.9,0C21.61,0.15-0.07,21.66,0,49.08c0.07,27.18,21.74,48.77,49.02,48.76
		c27.21-0.01,48.84-21.65,48.91-48.86C98.01,21.88,76.3,0,48.9,0z"/>
	<path style="fill:#2F2E2C;" d="M48.9,0c27.4,0,49.11,21.88,49.04,48.98c-0.07,27.21-21.7,48.85-48.91,48.86
		C21.74,97.85,0.07,76.26,0,49.08C-0.07,21.66,21.61,0.15,48.9,0z M58.77,74.7c1.94,0.05,3.59,0.11,5.24,0.14
		c1.76,0.02,3.52,0.08,5.28-0.02c1.61-0.09,3.32,0.51,5.02-0.64c-2.07-3.72-1.59-7.76-1.6-11.73c-0.01-9.92-0.04-19.83,0.04-29.74
		c0.01-1.55-0.43-2.57-1.73-3.3c-0.42-0.23-0.82-0.5-1.23-0.74c-6.38-3.82-12.76-7.63-19.13-11.47c-1.16-0.7-2.22-0.69-3.36,0
		c-4.47,2.7-8.94,5.38-13.41,8.08c-2.9,1.75-5.79,3.53-8.69,5.3c0,0.9,0,1.62,0,2.33c0,10.87,0,21.75,0,32.62
		c0,2.38,0.24,4.79-0.98,7.02c-0.29,0.52-0.29,1.2-0.44,1.88c1.69,0.8,3.39,0.34,5.02,0.41c1.76,0.07,3.52,0.08,5.28,0
		c1.62-0.08,3.33,0.42,5.08-0.62c0-0.76,0-1.55,0-2.33c-0.01-11.35,0.01-22.71-0.05-34.06c-0.01-1.44,0.35-2.36,1.68-3.09
		c2.21-1.2,4.33-2.58,6.44-3.96c1.22-0.8,2.27-0.84,3.5-0.01c2.09,1.4,4.21,2.78,6.43,3.95c1.35,0.72,1.67,1.63,1.66,3.05
		c-0.06,11.35-0.05,22.71-0.06,34.06C58.76,72.62,58.77,73.41,58.77,74.7z"/>
	<path style="fill:#FFFFFF;" d="M58.77,74.7c0-1.29,0-2.08,0-2.87c0.01-11.35,0-22.71,0.06-34.06c0.01-1.43-0.31-2.34-1.66-3.05
		c-2.22-1.18-4.34-2.55-6.43-3.95c-1.24-0.83-2.29-0.79-3.5,0.01c-2.11,1.38-4.23,2.75-6.44,3.96c-1.32,0.72-1.68,1.65-1.68,3.09
		c0.06,11.35,0.04,22.71,0.05,34.06c0,0.79,0,1.57,0,2.33c-1.75,1.04-3.46,0.54-5.08,0.62c-1.76,0.08-3.52,0.08-5.28,0
		c-1.63-0.07-3.32,0.39-5.02-0.41c0.15-0.68,0.15-1.36,0.44-1.88c1.23-2.23,0.98-4.64,0.98-7.02c0-10.87,0-21.75,0-32.62
		c0-0.72,0-1.43,0-2.33c2.9-1.77,5.79-3.54,8.69-5.3c4.47-2.7,8.95-5.38,13.41-8.08c1.14-0.69,2.2-0.7,3.36,0
		c6.36,3.84,12.75,7.65,19.13,11.47c0.41,0.25,0.81,0.51,1.23,0.74c1.3,0.73,1.74,1.75,1.73,3.3c-0.08,9.91-0.05,19.83-0.04,29.74
		c0,3.97-0.48,8,1.6,11.73c-1.7,1.15-3.42,0.55-5.02,0.64c-1.75,0.1-3.52,0.04-5.28,0.02C62.35,74.81,60.7,74.75,58.77,74.7z"/>
	<path style="fill:#010000;" d="M487.55,79.74c-3.8,0-7.3,0-11.1,0c-0.05-1-0.13-1.92-0.13-2.84c-0.02-8.32-0.02-16.64-0.03-24.96
		c0-1.97-0.59-3.71-1.81-5.29c-1.02-1.32-2.44-1.92-3.92-2c-3.12-0.16-6.75,1-7.69,4.99c-0.36,1.53-0.69,3.12-0.7,4.69
		c-0.07,7.52-0.03,15.04-0.03,22.56c0,0.87,0,1.73,0,2.9c-2.03,0.02-3.84,0.04-5.65,0.05c-1.75,0.01-3.49,0-5.49,0
		c-0.06-1.13-0.15-2.06-0.15-2.98c-0.01-7.76,0.04-15.52-0.04-23.28c-0.02-1.8-0.34-3.66-0.86-5.38c-0.3-0.98-1.11-2.08-1.99-2.55
		c-4.43-2.33-10.25-0.87-11.07,4.8c-0.17,1.18-0.18,2.39-0.18,3.59c-0.02,7.52-0.01,15.04-0.01,22.56c0,0.94,0,1.88,0,3.14
		c-3.9,0.17-7.53,0.1-11.35,0.06c-0.13-1.05-0.32-1.9-0.32-2.75c-0.02-12.64-0.02-25.28,0.01-37.92c0-0.93,0.19-1.85,0.31-2.89
		c3.55,0,6.89,0,10.52,0c0.12,1.69,0.24,3.37,0.4,5.6c2.41-2.68,4.35-5.17,7.53-6.14c3.16-0.96,6.37-0.93,9.46-0.25
		c3.21,0.71,5.53,2.99,7.37,6.1c0.52-0.4,1.07-0.67,1.4-1.1c4.09-5.42,9.41-6.44,16.23-4.63c4.52,1.2,7.37,4.29,8.85,8.54
		c0.64,1.84,0.7,3.93,0.72,5.92c0.07,9.04,0.04,18.08,0.02,27.12C487.81,78.11,487.66,78.81,487.55,79.74z"/>
	<path style="fill:#010000;" d="M241.26,79.51c0.04-0.47-0.01-0.82,0.11-1.08c1.31-2.8,0.98-5.78,0.99-8.73
		c0.01-8.32,0.04-16.63-0.02-24.95c-0.01-1.59,0.38-2.62,1.88-3.44c4.09-2.24,8.07-4.68,12.09-7.03c2.18-1.27,4.37-2.53,6.64-3.84
		c4.83,2.77,9.61,5.51,14.38,8.27c1.5,0.86,2.92,1.86,4.46,2.64c1.49,0.75,1.96,1.83,1.95,3.45c-0.06,9.36-0.03,18.71-0.03,28.07
		c0,1.98-0.15,3.99,1.02,5.78c0.14,0.22,0.02,0.6,0.02,1.05c-4.21,0-8.33,0-12.71,0c-0.05-1.06-0.12-1.99-0.12-2.91
		c-0.01-9.2-0.07-18.39,0.06-27.59c0.03-1.81-0.65-2.83-2.02-3.64c-1.77-1.04-3.55-2.06-5.34-3.05c-1.13-0.63-2.34-0.59-3.44,0.02
		c-1.93,1.08-3.76,2.33-5.69,3.4c-1.38,0.76-1.77,1.79-1.76,3.32c0.07,9.12,0.03,18.23,0.03,27.35c0,0.95,0,1.89,0,2.76
		C251.79,79.95,243.8,80.03,241.26,79.51z"/>
	<path style="fill:#010000;" d="M377.08,51.37c-4.12,0.41-7.91,0.22-11.6,0.16c-0.53-1.24-0.96-2.25-1.4-3.26
		c-1.34-3.05-5.35-4.12-7.85-3.57c-5.13,1.12-6.92,5.06-7.38,8.8c-0.4,3.23-0.36,6.58,0.02,9.81c0.37,3.19,1.75,5.94,4.99,7.55
		c4.13,2.05,9.23-0.05,10.99-4.76c0.82-2.19,0.82-2.23,2.96-2.25c2.16-0.03,4.32-0.04,6.48-0.01c2.51,0.03,2.58,0.35,2.06,2.81
		c-0.61,2.88-1.89,5.36-3.68,7.62c-2.18,2.74-4.99,4.47-8.31,5.66c-4.16,1.49-8.43,1.41-12.54,0.68
		c-6.26-1.12-10.89-4.71-13.26-10.91c-2.27-5.94-2.34-11.92-1.15-18.07c0.77-3.98,2.22-7.56,4.91-10.59
		c3.09-3.49,7.02-5.41,11.62-5.8c2.3-0.2,4.66-0.24,6.95,0c6.93,0.75,12.03,4.28,14.92,10.67C376.52,47.5,376.63,49.38,377.08,51.37
		z"/>
	<path style="fill:#010000;" d="M179.72,36.13c0,2.26,0,4.15,0,6.35c1.06-0.54,1.49-1.18,1.91-1.92c2.51-4.37,6.8-5.85,11.32-5.43
		c0.97,0.09,1.43,0.66,1.44,1.58c0.02,2.8,0.04,5.59,0,8.39c-0.02,1.27-0.91,1.44-1.99,1.5c-1.82,0.1-3.66,0.22-5.43,0.61
		c-3.32,0.72-6.35,4.04-6.34,7.9c0.02,7.11-0.02,14.22-0.04,21.34c0,0.95,0,1.91,0,2.93c-0.55,0.17-0.99,0.43-1.43,0.43
		c-2.88,0.04-5.75,0.03-8.63,0.05c-1.17,0.01-1.8-0.48-1.76-1.71c0.02-0.48-0.01-0.96-0.01-1.44c0-12.39,0-24.77,0-37.16
		c0-0.64,0.02-1.28,0.02-1.92c0.01-0.99,0.55-1.48,1.49-1.49C173.3,36.11,176.32,36.13,179.72,36.13z"/>
	<path style="fill:#010000;" d="M320.2,14.82c0,8.83,0,17.41,0,26.45c-0.84-0.7-1.31-1.07-1.75-1.47c-0.82-0.75-1.57-1.58-2.45-2.26
		c-2.95-2.28-6.39-2.59-9.97-2.45c-5.11,0.2-9.04,2.53-12.21,6.41c-3.1,3.79-4.11,8.37-4.65,13.02c-0.68,5.88,0.41,11.57,2.92,16.93
		c1.54,3.29,3.92,5.83,7.18,7.64c3.31,1.83,6.79,2.01,10.39,1.81c2.78-0.15,5.25-1.11,7.36-2.92c0.99-0.85,1.91-1.77,3.18-2.95
		c0.14,1.77,0.24,3.15,0.36,4.67c3.62,0,7.1,0,10.85,0c0-21.72,0-43.26,0-65.02C327.65,14.39,324.06,14.24,320.2,14.82z
		 M320.56,58.4c-0.05,2.46-0.13,4.95-1.19,7.39c-2.1,4.84-8.09,7.56-12.84,4.77c-1.36-0.8-2.65-2.1-3.42-3.48
		c-1.59-2.87-2.17-5.88-2.11-8.95c-0.05-2.15,0.24-4.34,0.75-6.54c0.61-2.67,1.78-4.99,4.26-6.23c5.79-2.9,11.15-0.87,13.37,4.57
		c1,2.45,1.05,4.95,1.17,7.57c0,0.2-0.01,0.39-0.01,0.59C320.55,58.19,320.55,58.3,320.56,58.4z"/>
	<path style="fill:#010000;" d="M535.11,48.21c-1.96-6.43-5.83-10.9-12.22-12.74c-3.25-0.94-6.74-0.88-10.13,0.27
		c-2.61,0.89-4.56,2.52-6.17,4.63c-0.44,0.58-0.78,1-1.65,0.54c-0.07-1.49-0.15-3.05-0.25-4.89c-2.43,0-4.64,0-6.86,0
		c-3.83,0.01-3.84,0.01-3.84,3.76c0,19.91,0,39.83,0.01,59.74c0,0.64,0.01,1.28,0.03,1.92c0.04,1.17,0.63,1.71,1.83,1.69
		c2.64-0.04,5.28,0.01,7.92-0.03c0.53-0.01,1.07-0.23,1.8-0.4c0-0.92,0-1.79,0-2.65c0-7.44-0.01-14.88,0.01-22.31
		c0-0.81-0.28-1.72,0.51-2.49c1.71,1.78,3.24,3.54,5.54,4.54c2.93,1.28,5.9,1.06,8.92,0.98c2.63-0.07,4.92-1.18,7.06-2.56
		c4.85-3.16,7.15-8.1,8.12-13.44C536.74,59.3,536.8,53.74,535.11,48.21z M523.36,65.71c-0.63,1.45-1.62,2.71-2.81,3.69
		c-1.65,1.59-3.78,2.27-5.9,2.19c-1.4,0-2.81-0.33-4.12-1.11c-0.04-0.02-0.08-0.06-0.11-0.08c-1.63-0.91-3-2.29-3.77-4.05
		c-2.04-4.24-1.16-12.8-0.9-13.94c0.47-2.07,1.29-3.92,2.78-5.23c1.33-1.45,2.86-2.11,5.19-2.2c1.34-0.2,2.63-0.12,3.81,0.21
		c0.13,0.03,0.26,0.07,0.39,0.11c0.07,0.02,0.15,0.05,0.22,0.08c3.06,1.08,5.13,4.08,5.75,6.91c0.14,0.53,0.25,1.07,0.33,1.61
		c0.09,0.36,0.18,0.73,0.23,1.09c0.41,2.76,0.4,5.42-0.25,7.93C524.02,63.85,523.76,64.78,523.36,65.71z"/>
	<path style="fill:#010000;" d="M235.57,76.43c-0.22-1.82-0.29-3.66-0.3-5.5c-0.03-7.59-0.01-15.19-0.02-22.78
		c0-2.26-0.44-4.44-1.56-6.41c-2.42-4.27-6.47-5.99-11.03-6.48c-3.16-0.34-6.39-0.21-9.58-0.11c-4.52,0.14-8.31,2.04-11.33,5.36
		c-2.27,2.51-3.67,5.46-3.83,9.41c3.12,0.03,5.91,0.09,8.69,0.09c2.34,0,2.46-0.11,3.24-2.35c0.7-2,2.09-3.18,4.18-3.34
		c1.75-0.13,3.53-0.18,5.26,0.01c1.05,0.11,2.19,0.56,3.02,1.2c1.27,0.98,1.71,2.48,1.38,4.09c-0.32,1.58-1.41,2.48-2.93,2.74
		c-2.5,0.44-5.05,0.67-7.54,1.17c-3.1,0.62-6.37,0.52-9.25,2.12c-2.76,1.53-5,3.44-6.23,6.54c-1.27,3.22-1.17,6.49-0.58,9.66
		c0.69,3.7,2.93,6.44,6.57,8.1c2,0.91,3.99,1.02,6.03,1.11c3.61,0.16,7.18-0.16,10.29-2.25c1.33-0.9,2.47-2.07,3.82-3.22
		c0.67,1.46,1.26,2.74,1.83,3.98c3.61,0,7.07,0,10.89,0C236.17,78.32,235.68,77.4,235.57,76.43z M220.9,70.45
		c-2.11,2.36-7.63,3.35-10.42,1.97c-2.17-1.08-3.24-4.96-2.07-7.34c0.9-1.82,2.45-2.8,4.25-3.47c0.89-0.33,1.81-0.58,2.74-0.79
		c2.6-0.58,5.21-1.12,7.93-1.7c0.05,0.06,0.32,0.22,0.34,0.41C224.2,63.54,223.71,67.32,220.9,70.45z"/>
	<path style="fill:#010000;" d="M419.6,75.83c-0.82-3.63-0.62-7.31-0.62-10.98c-0.01-5.68,0.06-11.35-0.06-17.03
		c-0.04-1.8-0.25-3.74-0.96-5.36c-2.12-4.8-6.44-6.62-11.26-7.19c-3.16-0.37-6.38-0.21-9.58-0.14c-4.15,0.09-7.73,1.75-10.71,4.55
		c-2.36,2.22-3.81,5.04-4.39,8.24c-0.27,1.48,0.05,1.98,1.28,2.01c2.79,0.08,5.59,0.04,8.39,0c0.85-0.01,1.42-0.4,1.69-1.36
		c0.46-1.63,1.26-3.19,2.98-3.76c2.93-0.98,5.97-1.12,8.85,0.09c2.09,0.88,2.64,2.5,2.21,4.98c-0.26,1.51-1.35,2.29-3.53,2.59
		c-2.68,0.37-5.35,0.75-8.02,1.16c-1.89,0.29-3.87,0.36-5.63,1.01c-5.57,2.04-9.21,5.46-9.54,12.03c-0.23,4.55,0.61,8.73,4.45,11.76
		c2.34,1.85,5.01,2.53,7.96,2.65c5.3,0.21,10.14-0.66,13.86-4.88c0.23-0.26,0.65-0.36,1-0.55c0.59,1.42,1.12,2.73,1.68,4.08
		c3.37,0,6.56,0.01,9.75-0.01c0.28,0,0.57-0.19,0.9-0.31C420.06,78.15,419.86,76.98,419.6,75.83z M402.41,72.15
		c-2.44,1.21-5.12,1.13-7.69,0.34c-0.68-0.21-1.29-0.9-1.75-1.52c-1.72-2.28-0.97-6.91,1.5-8.25c1.71-0.93,3.66-1.47,5.56-1.99
		c2.33-0.64,4.72-1.08,7.09-1.6C408.53,65.07,406.92,69.92,402.41,72.15z"/>
	<path style="fill:#010000;" d="M161.52,45.65c-1.57-3.38-3.81-6.13-6.96-8.19c-4.01-2.62-8.43-2.71-12.9-2.1
		c-1.42,0.2-2.82,1-4.06,1.79c-1.49,0.95-2.79,2.19-4.49,3.56c-0.13-1.18-0.31-2.09-0.31-3c-0.02-6.79,0.01-13.59,0-20.39
		c-0.01-2.51-0.31-2.8-2.72-2.84c-2-0.03-4-0.03-6-0.02c-2.8,0.03-2.97,0.21-2.97,3.01c0.01,19.83,0.03,39.65,0.05,59.48
		c0,0.85,0.09,1.71,0.15,2.71c3.75,0,7.29,0,10.95,0c0.08-1.49,0.16-2.8,0.26-4.56c0.74,0.62,1.18,1,1.62,1.37
		c0.96,0.8,1.86,1.68,2.88,2.38c2.98,2.04,6.38,2.23,9.84,2.08c4.82-0.2,8.65-2.27,11.67-5.97c2.73-3.35,4.31-7.3,4.78-11.47
		C163.97,57.47,164.18,51.39,161.52,45.65z M141.85,71.61c-6.44,0.01-9.64-5.96-9.64-13.32s2.1-13.14,9.64-13.32
		c8.08,0.24,9.64,5.96,9.64,13.32S148.06,72.12,141.85,71.61z"/>
	<path style="fill:#010000;" d="M527.72,22.07c0-3.23,2.64-5.87,5.89-5.87c1.56,0,3.02,0.63,4.12,1.72c1.11,1.13,1.7,2.6,1.7,4.15
		c0,1.56-0.59,3.05-1.7,4.13c-1.1,1.11-2.56,1.73-4.12,1.73C530.36,27.93,527.72,25.3,527.72,22.07z M527.22,22.07
		c0,3.51,2.86,6.37,6.38,6.37c1.7,0,3.27-0.66,4.49-1.86c1.21-1.21,1.86-2.8,1.86-4.51c0-1.71-0.65-3.3-1.86-4.51
		c-1.22-1.2-2.79-1.86-4.49-1.86C530.09,15.69,527.22,18.55,527.22,22.07z"/>
	<path style="fill:#010000;" d="M531.22,25.82h0.89v-2.96h2.02c0.35,0,0.6,0.03,0.79,0.12c0.29,0.17,0.45,0.46,0.47,0.92l0.08,1.16
		c0,0.26,0.01,0.45,0.01,0.54c0.04,0.09,0.08,0.17,0.08,0.23h1.13v-0.16c-0.14-0.05-0.21-0.19-0.29-0.42
		c-0.05-0.12-0.05-0.32-0.05-0.58l-0.04-0.93c0-0.4-0.09-0.71-0.2-0.87c-0.14-0.18-0.37-0.33-0.62-0.44
		c0.3-0.14,0.53-0.38,0.72-0.63c0.15-0.27,0.24-0.6,0.24-1.01c0-0.79-0.31-1.34-0.93-1.64c-0.33-0.16-0.76-0.23-1.25-0.23h-3.04
		V25.82z M532.11,22.07V19.7h2.15c0.31,0,0.57,0.05,0.75,0.14c0.31,0.18,0.5,0.51,0.5,1c0,0.47-0.13,0.78-0.38,0.97
		c-0.24,0.17-0.56,0.25-0.97,0.25H532.11z"/>
</g>
</svg>
