<svg xmlns="http://www.w3.org/2000/svg" viewBox="0 0 52.15 69.5">
    <path fill="#4752dc" d="M52.15,51.51V41.78a3.07,3.07,0,0,0-2.92-3,2.81,2.81,0,0,0-1.47.42,3.69,3.69,0,0,0-3.63-3.42,3.59,3.59,0,0,0-2.42.94,3.66,3.66,0,0,0-3.42-2.44,3.59,3.59,0,0,0-2.46,1L34.63,23a7.2,7.2,0,0,0-.15-.89h0l7.17-6.94L27.26,13,20.86,0,14.39,13,0,15.06,10.39,25.22,7.89,39.52l12.89-6.73,7.77,4.1-.09-2.67-7.67-4L11,35.3l1.9-10.89L5,16.69l10.95-1.56,4.92-9.9,4.88,9.92,10.95,1.61L33.32,20a2.94,2.94,0,0,0-1.92-.67c-1.93,0-3.33,1.57-3.33,3.77l.64,18.35h0s.31,6-.7,6.57c-.56.29-.56.29-1.61-1.3a47.08,47.08,0,0,0-4.24-5.59c-2.21-2.12-4-2.74-5.2-1.84-1.76,1.28-1.33,5.19-.66,6.57L25.93,63.5H23.48a.7.7,0,0,0-.7.7V68.8a.7.7,0,1,0,1.4,0V64.91l13.33-.07,12.85.07V68.8a.7.7,0,1,0,1.4,0V64.21a.7.7,0,0,0-.7-.7H49.24a18.19,18.19,0,0,1,1.41-4.79A16.44,16.44,0,0,0,52.15,51.51ZM33.68,20.37l0,0Zm14.2,42.37H31.54l-4.36.13c-1.34-2.41-8.75-15.76-9.65-17.62-.58-1.21-.69-4.16.22-4.83.58-.42,1.85.23,3.37,1.67a45.78,45.78,0,0,1,4.09,5.39c1.09,1.65,1.75,2.64,3.43,1.77,2-1,1.75-5.09,1.57-6.66l-.68-19.52c0-1.12.58-2.24,1.87-2.24.38,0,1.53,0,1.78,2.32l1.46,15a.76.76,0,0,0,0,.12v4a.7.7,0,1,0,1.4,0V38.14a.73.73,0,0,0,0-.1,2.19,2.19,0,1,1,4.38,0v1.5a.72.72,0,0,0,0,.08v3.52a.7.7,0,0,0,1.4,0V39.76a.75.75,0,0,0,0-.22,2.19,2.19,0,1,1,4.38,0v.53a.69.69,0,0,0-.05.25v4.25a.7.7,0,0,0,1.4,0V42.15a.74.74,0,0,0,.11-.37,1.54,1.54,0,0,1,1.46-1.5,1.58,1.58,0,0,1,1.46,1.5v9.73a15,15,0,0,1-1.39,6.62A19.81,19.81,0,0,0,47.88,62.73Z"/>
</svg>
